<?xml version="1.0" encoding="UTF-8"?>
<svg xmlns="http://www.w3.org/2000/svg" version="1.1" viewBox="0 0 48 48">
  <!-- Generator: Adobe Illustrator 29.7.0, SVG Export Plug-In . SVG Version: 2.1.1 Build 138)  -->
  <defs>
    <style>
      .st0 {
        fill: #fff;
      }

      .st1 {
        fill: #f47322;
      }
    </style>
  </defs>
  <g id="CIRCLE">
    <circle class="st1" cx="24" cy="24" r="24"/>
  </g>
  <g id="ICON">
    <path class="st0" d="M38.13,20.22h-9.55c-.36,0-.67-.23-.78-.58l-3.03-10.08c-.23-.77-1.32-.77-1.55,0l-3.08,10.09c-.1.34-.42.57-.78.57h-9.55c-.79,0-1.11,1.02-.47,1.47l7.85,5.54c.29.2.41.57.3.91l-3.14,9.81c-.24.76.63,1.37,1.26.89l7.88-6.01c.29-.22.69-.22.98,0l7.87,6c.63.48,1.51-.14,1.26-.89l-3.18-9.79c-.11-.34.01-.71.3-.91l7.85-5.54c.65-.46.32-1.47-.47-1.47Z"/>
  </g>
</svg>