<?xml version="1.0" encoding="UTF-8"?>
<svg id="Layer_1" xmlns="http://www.w3.org/2000/svg" version="1.1" viewBox="0 0 300 300">
  <!-- Generator: Adobe Illustrator 29.7.1, SVG Export Plug-In . SVG Version: 2.1.1 Build 8)  -->
  <defs>
    <style>
      .st0 {
        fill: #0866ff;
      }

      .st1 {
        fill: #fff;
      }
    </style>
  </defs>
  <g id="Logo">
    <path id="Initiator" class="st0" d="M298.68,150C298.68,67.89,232.11,1.32,150,1.32S1.32,67.89,1.32,150c0,69.73,48,128.24,112.76,144.3v-98.87h-30.66v-45.43h30.66v-19.58c0-50.61,22.9-74.06,72.58-74.06,9.42,0,25.67,1.85,32.32,3.69v41.19c-3.51-.37-9.6-.55-17.18-.55-24.38,0-33.8,9.23-33.8,33.24v16.07h48.56l-8.34,45.43h-40.22v102.16c73.62-8.89,130.67-71.58,130.67-147.59Z"/>
    <path id="F" class="st1" d="M208.23,195.43l8.34-45.43h-48.56v-16.07c0-24.01,9.42-33.24,33.8-33.24,7.57,0,13.67.18,17.18.55v-41.19c-6.65-1.85-22.9-3.69-32.32-3.69-49.68,0-72.58,23.46-72.58,74.06v19.58h-30.66v45.43h30.66v98.87c11.5,2.85,23.53,4.38,35.92,4.38,6.1,0,12.11-.38,18.01-1.09v-102.16h40.22Z"/>
  </g>
</svg>