<?xml version="1.0" encoding="UTF-8"?>
<svg id="Layer_1" xmlns="http://www.w3.org/2000/svg" version="1.1" viewBox="0 0 48 48">
  <!-- Generator: Adobe Illustrator 29.7.0, SVG Export Plug-In . SVG Version: 2.1.1 Build 138)  -->
  <defs>
    <style>
      .st0 {
        fill: #fff;
      }
    </style>
  </defs>
  <path class="st0" d="M27.93,39.2c-4.02-1.87-7.74-4.52-11.18-7.95-3.43-3.43-6.08-7.16-7.95-11.18-1.87-4.02-2.8-7.96-2.8-11.83,0-.64.21-1.18.64-1.61.43-.43.96-.64,1.61-.64h7c.47,0,.87.17,1.2.5s.57.75.7,1.25l1.35,6.28c.07.48.06.91-.02,1.29s-.26.71-.54.99l-4.99,5.04c.87,1.47,1.78,2.83,2.75,4.1s2.03,2.47,3.2,3.6c1.23,1.27,2.53,2.43,3.9,3.48,1.37,1.05,2.8,1.98,4.3,2.78l4.75-4.9c.33-.37.72-.62,1.16-.75s.87-.17,1.29-.1l5.95,1.3c.5.13.92.4,1.25.8.33.4.5.85.5,1.35v6.75c0,.64-.21,1.18-.64,1.61-.43.43-.96.64-1.61.64-3.87,0-7.81-.93-11.83-2.8ZM15.5,14.5l-1.15-5.5h-5.35c0,1.3.2,2.73.6,4.28s1.02,3.33,1.85,5.33l4.05-4.1ZM34.35,38.3c1.6.4,3.15.63,4.65.7v-5.35s-5.15-1.05-5.15-1.05l-3.95,4.15c1.37.63,2.85,1.15,4.45,1.55Z"/>
</svg>