<?xml version="1.0" encoding="UTF-8"?>
<svg id="ICON" xmlns="http://www.w3.org/2000/svg" version="1.1" viewBox="0 0 48 48">
  <!-- Generator: Adobe Illustrator 29.7.0, SVG Export Plug-In . SVG Version: 2.1.1 Build 138)  -->
  <defs>
    <style>
      .st0 {
        fill: #fff;
      }

      .st1 {
        fill: #f47322;
      }
    </style>
  </defs>
  <circle class="st1" cx="24" cy="24" r="24"/>
  <path class="st0" d="M11.5,39c-.67,0-1.25-.25-1.75-.75s-.75-1.08-.75-1.75V11.5c0-.64.25-1.22.75-1.73s1.08-.77,1.75-.77h25c.64,0,1.22.26,1.73.77s.77,1.09.77,1.73v25c0,.67-.26,1.25-.77,1.75s-1.09.75-1.73.75H11.5ZM11.5,36.5h6.54v-8.75h-.83c-.35,0-.65-.12-.89-.36-.24-.24-.36-.54-.36-.89v-15h-4.46v25ZM29.96,36.5h6.54V11.5h-4.46v15c0,.35-.12.65-.36.89-.24.24-.54.36-.89.36h-.83v8.75ZM19.71,36.5h8.58v-8.75h-.83c-.35,0-.65-.12-.89-.36-.24-.24-.36-.54-.36-.89v-15h-4.42v15c0,.35-.12.65-.36.89s-.54.36-.89.36h-.83v8.75Z"/>
</svg>