<?xml version="1.0" encoding="UTF-8"?>
<svg id="ICON" xmlns="http://www.w3.org/2000/svg" version="1.1" viewBox="0 0 48 48">
  <!-- Generator: Adobe Illustrator 29.7.0, SVG Export Plug-In . SVG Version: 2.1.1 Build 138)  -->
  <defs>
    <style>
      .st0 {
        fill: #fff;
      }

      .st1 {
        fill: #f47322;
      }
    </style>
  </defs>
  <circle class="st1" cx="24" cy="24" r="24"/>
  <path class="st0" d="M11.4,15.83v20.74h25.2V15.83h-5.88v14.36l-6.72-3.36-6.72,3.36v-14.36h-5.88ZM11.4,39.1c-.69,0-1.29-.25-1.78-.74-.49-.49-.74-1.09-.74-1.78V14.36c0-.28.04-.54.13-.8s.21-.49.38-.71l2.18-2.98c.22-.31.52-.55.88-.73s.74-.27,1.14-.27h20.79c.4,0,.77.09,1.14.27.36.18.66.43.88.73l2.23,2.98c.17.22.29.45.38.71s.13.52.13.8v22.21c0,.69-.25,1.29-.74,1.78-.49.49-1.09.74-1.78.74H11.4ZM12.12,13.32h23.73l-1.53-1.93H13.63l-1.51,1.93ZM19.8,15.83v10.29l4.2-2.1,4.2,2.1v-10.29h-8.4ZM11.4,15.83h25.2H11.4Z"/>
</svg>