<?xml version="1.0" encoding="UTF-8"?>
<svg id="Layer_1" xmlns="http://www.w3.org/2000/svg" version="1.1" viewBox="0 0 48 48">
  <!-- Generator: Adobe Illustrator 29.7.0, SVG Export Plug-In . SVG Version: 2.1.1 Build 138)  -->
  <defs>
    <style>
      .st0 {
        fill: #fff;
      }
    </style>
  </defs>
  <path class="st0" d="M9,39V9v26.5-4.4,7.9ZM9,42c-.8,0-1.5-.3-2.1-.9s-.9-1.3-.9-2.1V9c0-.8.3-1.5.9-2.1s1.3-.9,2.1-.9h30c.8,0,1.5.3,2.1.9s.9,1.3.9,2.1v19.5h-3V9H9v30h17v3H9ZM35.1,44l-6.5-6.5,2.1-2.15,4.4,4.4,8.75-8.75,2.15,2.1-10.9,10.9ZM15,25.5c.4,0,.75-.15,1.05-.45s.45-.65.45-1.05-.15-.75-.45-1.05-.65-.45-1.05-.45-.75.15-1.05.45-.45.65-.45,1.05.15.75.45,1.05.65.45,1.05.45ZM15,17.3c.4,0,.75-.15,1.05-.45s.45-.65.45-1.05-.15-.75-.45-1.05-.65-.45-1.05-.45-.75.15-1.05.45-.45.65-.45,1.05.15.75.45,1.05.65.45,1.05.45ZM21.6,25.5h12.2v-3h-12.2v3ZM21.6,17.3h12.2v-3h-12.2v3Z"/>
</svg>