<?xml version="1.0" encoding="UTF-8"?>
<svg id="Layer_1" xmlns="http://www.w3.org/2000/svg" version="1.1" viewBox="0 0 300 300">
  <!-- Generator: Adobe Illustrator 29.7.1, SVG Export Plug-In . SVG Version: 2.1.1 Build 8)  -->
  <defs>
    <style>
      .st0 {
        fill: #4385f4;
      }

      .st1 {
        fill: #35a854;
      }

      .st2 {
        fill: #ea4436;
      }

      .st3 {
        fill: #fbbc06;
      }
    </style>
  </defs>
  <path class="st2" d="M20.26,84.28C60.65.74,168.67-24.7,242.64,31.04c1.43,1.08,8.77,6.82,8.74,8.13l-42.71,42.65-1.22-.12c-10.09-8.6-23.06-15.07-36.2-17.79-42.61-8.82-87.61,17.07-100.85,58.29l-50.13-37.92Z"/>
  <path class="st1" d="M70.39,177.66l.8.3c7.55,24.08,27.13,44.18,50.58,53.3,26.22,10.2,56.76,7.09,81.09-6.71l46.87,36.7c-71.75,66.74-186.9,39.84-228.65-46.08l49.32-37.51Z"/>
  <path class="st0" d="M202.86,224.55c3.65-3.42,8.12-5.99,11.64-9.55,9.17-9.27,16.13-22.77,18.11-35.3h-78.46l-.61-.61v-56.48h138.58l2.44,18.16.02,20.8c.06.89-.74,1.67-.8,2.46-2.81,38.79-15.66,70.83-44.04,97.23l-46.87-36.7Z"/>
  <path class="st3" d="M20.26,84.28l50.13,37.92c-5.78,17.99-4.97,37.42,0,55.46l-49.32,37.51C.98,173.81-.27,126.73,20.26,84.28Z"/>
</svg>