<?xml version="1.0" encoding="UTF-8"?>
<svg id="Layer_2" xmlns="http://www.w3.org/2000/svg" version="1.1" viewBox="0 0 995.84 99.39">
  <!-- Generator: Adobe Illustrator 29.7.1, SVG Export Plug-In . SVG Version: 2.1.1 Build 8)  -->
  <defs>
    <style>
      .st0 {
        fill: #fff;
      }
    </style>
  </defs>
  <path class="st0" d="M222.44,52.66L233.28,1.28h-47.59l-10.86,51.39h-3.7L181.98,1.28H41.8c-8.24,0-14.98,2.37-20.04,7.03-4.52,4.15-7.59,9.89-9.13,17.06L3.83,67.07c-.38,1.68-.62,3.06-.71,4.23-.12,1.15-.18,2.34-.18,3.57,0,7.29,2.86,13.64,8.03,17.87,4.42,3.62,10.06,5.38,17.22,5.38h65.65l3.18-6.44.43,6.44h144.1l9.64-45.45h-28.76ZM105.18,55.37h-1.72l1.53-3.04.19,3.04ZM47.15,58.56l3.86-17.91h28.61l-9.31,17.91h-23.16Z"/>
  <path class="st0" d="M425.06,98.11c-6.24,0-11.32-1.33-15.47-4.05-4.44,2.69-9.85,4.05-16.14,4.05h-30.26c-6.25,0-11.34-1.33-15.49-4.06-4.46,2.7-9.89,4.06-16.2,4.06h-29.6c-2.34,0-4.51-.19-6.53-.56l-.12.56h-46.75l11.04-52.15h-8.72l9.36-44.68h84.17c6.46,0,11.69,1.41,15.92,4.29,4.52-2.85,10.06-4.29,16.53-4.29h30.28c6.22,0,11.3,1.34,15.43,4.07,4.47-2.71,9.88-4.07,16.15-4.07h30.26c7.14,0,12.77,1.75,17.2,5.36,3.69,3.04,8.05,8.59,8.05,17.89,0,1.47-.1,2.89-.31,4.23-.11.82-.38,2.59-.38,2.59l-.1.56-8.88,42.12c-1.54,7.15-4.56,12.85-8.98,16.97-5.05,4.72-11.84,7.12-20.2,7.12h-30.26ZM445.75,57.27l3.33-15.54h-.85l-3.31,15.54h.83ZM383.89,57.27l3.33-15.54h-.85l-3.31,15.54h.83ZM306.54,49.19v-.03s-5.46,0-5.46,0v.03s5.46,0,5.46,0Z"/>
  <polygon class="st0" points="512.51 98.11 515.08 85.65 482.97 85.65 490.38 50.9 532.84 1.28 578.56 1.28 569.9 42.2 578.55 42.2 569.19 85.65 560.74 85.65 558.16 98.11 512.51 98.11"/>
  <path class="st0" d="M728.41,98.11l-.69-7c-5.09,4.65-11.82,7-20.02,7h-32.07c-2.8,0-5.36-.27-7.71-.81l-.17.81h-99.96L588.26,1.28h42.2l3.17,16.96,10.52-16.96h44.03,0c.35,0,.71,0,1.07,0h77.53l.41,5.4,2.81-5.4h129.96c6.53,0,11.81,1.45,16.08,4.44,4.58-2.95,10.22-4.44,16.85-4.44h60.01l-9.34,44.68h-1.36c.26,1.44.39,2.93.39,4.45,0,1.86-.19,3.81-.58,5.8l-3.76,17.81c-1.54,7.13-4.56,12.83-8.97,16.96-5.05,4.73-11.85,7.13-20.2,7.13h-220.65ZM697.28,57.27l3.3-15.44h-1.02l-3.3,15.44h1.02Z"/>
  <path d="M985.64,7.17h-52.76c-6.88,0-12.36,1.87-16.28,5.54-.27.25-.52.5-.77.77-.77-.93-1.56-1.68-2.3-2.27-3.37-2.71-7.82-4.04-13.58-4.04h-126.38l-10.68,20.54-1.58-20.54h-35.86l.03.27c-1.31-.18-2.7-.27-4.17-.27h-32.07c-3.15,0-6.03.4-8.57,1.19l.25-1.19h-33.49l-16.8,27.09-5.07-27.09h-32.53l-17.97,85.05h87.9l.62-2.98c3.15,2,7.12,2.98,12.05,2.98h32.07c6.7,0,12.11-1.84,16.07-5.48,3.58-3.3,6.06-7.99,7.34-13.94l.5-2.39,2.14,21.8h31.78l14.51-26.83-5.7,26.83h93.91l5.04-23.98h2.89l-4.99,23.98h77.88c6.81,0,12.24-1.86,16.18-5.54,3.52-3.3,5.95-7.96,7.23-13.88l3.74-17.71c.31-1.61.47-3.18.47-4.69,0-4.67-1.55-8.04-3.29-10.34h5.36l6.88-32.9ZM707.87,35.94l-5.82,27.23h-13.07l5.82-27.23h13.07ZM923.07,60.4h21.1l-.65,3.06h-35.31l.5-2.45c.25-.85.37-1.71.37-2.56v-1c0-2.27-.52-4.05-1.25-5.45.77-.9,1.4-1.94,1.97-3.09.21,4.15,2.02,6.75,3.57,8.21,2.3,2.18,5.57,3.29,9.71,3.29ZM811.95,63.17l.35-1.72h23.69l4.7-22.07h-23.66l.75-3.43h31.35l-5.78,27.23h-31.41ZM886.71,35.94l-1.18,5.44h-11.03l1.16-5.44h11.05Z"/>
  <path d="M571.29,7.17h-35.74l-39.72,46.42-5.58,26.17h32.06l-2.56,12.46h33.62l2.58-12.46h8.49l6.82-31.66h-8.62l8.66-40.93ZM531.18,52.52l1.86-2.12-.46,2.12h-1.4Z"/>
  <path d="M482.4,11.21c-3.33-2.71-7.73-4.04-13.48-4.04h-30.26c-6.81,0-12.24,1.87-16.18,5.54-.06.06-.13.12-.19.19-.6-.68-1.19-1.24-1.75-1.69-3.33-2.71-7.73-4.04-13.47-4.04h-30.28c-6.81,0-12.24,1.87-16.18,5.54-.18.18-.37.35-.54.53-.65-.77-1.31-1.4-1.93-1.9-3.4-2.81-7.91-4.17-13.79-4.17h-28.08c-2.93,0-5.61.35-8.06,1.03l.22-1.03h-43.46l-6.89,32.9h8.74l-11.03,52.15h34.7l.49-2.33c2.95,1.56,6.56,2.33,10.95,2.33h29.6c6.76,0,12.18-1.83,16.1-5.42.1-.1.21-.19.31-.28.62.69,1.25,1.27,1.83,1.74,3.34,2.67,7.75,3.96,13.45,3.96h30.26c6.81,0,12.24-1.86,16.18-5.54.06-.04.1-.09.16-.15.62.69,1.24,1.25,1.81,1.72,3.34,2.67,7.75,3.96,13.45,3.96h30.26c6.81,0,12.24-1.86,16.18-5.54,3.52-3.29,5.95-7.94,7.23-13.88l8.88-42.12.04-.25s.28-1.8.37-2.5c.18-1.13.25-2.28.25-3.4,0-7.03-3.2-11.11-5.88-13.32ZM456.36,35.84l-5.85,27.33h-12.88l5.82-27.33h12.91ZM394.5,35.84l-5.85,27.33h-12.88l5.82-27.33h12.91ZM314.84,59.63h13.04l-.94,4.49h-13.01l.91-4.49ZM332.2,38.33h-12.58l.72-3.43h12.58l-.72,3.43ZM313.87,43.26l-2.59,11.82h-17.47l2.49-11.82h17.58Z"/>
  <path d="M215.17,58.56l10.84-51.39h-35.55l-10.86,51.39h-15.73l10.84-51.39h-35.55l-5.42,25.69-1.97-25.69h-34.75l-10.46,20.11,4.18-20.11h-48.94c-6.7,0-12.11,1.84-16.06,5.48-3.59,3.3-6.07,7.99-7.35,13.94l-8.81,41.78c-.29,1.3-.5,2.48-.59,3.55-.1.99-.15,1.99-.15,2.95,0,5.5,2.09,10.22,5.86,13.3,3.33,2.73,7.73,4.05,13.5,4.05h61.98l4.94-9.99h7.17l.68,9.99h133.82l7.13-33.66h-28.74ZM111.47,61.27h-17.61l15.6-30.84,2,30.84ZM79.62,40.64l-9.31,17.91h-23.16l3.86-17.91h28.61Z"/>
  <polygon points="79.62 40.64 70.31 58.56 47.15 58.56 51.01 40.64 79.62 40.64"/>
  <path d="M483.85,24.52c0,.91-.06,1.84-.21,2.78-.09.68-.37,2.46-.37,2.46l-8.87,42.14c-1.09,5.01-3.09,8.88-5.94,11.55-3.08,2.89-7.51,4.35-13.16,4.35h-30.26c-4.67,0-8.16-.97-10.68-3.01-1.53-1.21-3.27-3.27-3.99-6.54-1.02,2.06-2.27,3.8-3.77,5.2-3.08,2.89-7.51,4.35-13.16,4.35h-30.26c-4.67,0-8.16-.97-10.68-3.01-1.53-1.22-3.29-3.31-4.01-6.61-1.03,2.11-2.31,3.92-3.89,5.36-3.08,2.83-7.48,4.26-13.11,4.26h-29.6c-4.67,0-8.16-.97-10.68-3.01-1-.8-2.11-1.96-2.95-3.61l-1.4,6.61h-25.65l11.03-52.15h-8.74l5.04-24.06h34.42l-1.13,5.41c.41-.46.85-.88,1.33-1.3,3.21-2.73,7.62-4.11,13.1-4.11h28.08c4.8,0,8.4,1.03,10.98,3.15,1.62,1.34,3.48,3.67,4.1,7.35,1.09-2.49,2.49-4.54,4.21-6.16,3.08-2.89,7.51-4.35,13.16-4.35h30.28c4.67,0,8.16,1,10.67,3.05,1.5,1.22,3.23,3.31,3.92,6.66,1.03-2.14,2.31-3.92,3.85-5.36,3.08-2.89,7.51-4.35,13.16-4.35h30.26c4.69,0,8.18,1,10.68,3.05,1.94,1.59,4.26,4.6,4.26,9.89Z"/>
  <polygon points="557.18 52.52 565.77 52.52 560.86 75.34 552.33 75.34 549.77 87.8 525.17 87.8 527.74 75.34 495.71 75.34 499.91 55.61 537.59 11.59 565.84 11.59 557.18 52.52"/>
  <path d="M938.39,35.65l-.52,2.4h20.98c4.24,0,7.56,1.13,9.87,3.37,1.62,1.58,3.54,4.42,3.54,8.99,0,1.21-.13,2.49-.4,3.82l-3.71,17.68c-1.09,5.01-3.08,8.88-5.94,11.55-3.08,2.89-7.51,4.35-13.16,4.35h-72.44l4.99-23.98h-11.9l-5.04,23.98h-84.86l10.92-51.46-27.83,51.46h-25.13l-4.52-46.44-6.45,30.54c-1.08,5.02-3.11,8.91-6,11.58-3.12,2.87-7.51,4.32-13.08,4.32h-32.07c-4.66,0-8.15-.97-10.68-3.01-1.37-1.09-2.92-2.9-3.74-5.64l-1.83,8.65h-23.96l2.67-12.61-7.69,12.61h-19.48l-3.08-15.57-3.29,15.57h-24.04l16.1-76.21h25.28l6.48,34.7,21.51-34.7h25.58l-1.38,6.62c.6-.84,1.27-1.59,1.99-2.27,3.08-2.89,7.51-4.35,13.17-4.35h32.07c3.83,0,6.87.68,9.21,2.05l-.19-2.05h26.89l2.46,31.88,16.59-31.88h123.68c4.71,0,8.25,1,10.81,3.06,1.78,1.43,3.86,3.99,4.3,8.27,1.12-2.86,2.64-5.2,4.55-6.98,3.08-2.89,7.54-4.35,13.26-4.35h47.32l-5.04,24.06h-36.77Z"/>
  <polygon points="111.47 61.27 93.87 61.27 109.47 30.43 111.47 61.27"/>
  <path d="M209.72,62.98l10.84-51.39h-26.5l-10.86,51.39h-24.78l10.84-51.39h-26.5l-11.06,52.35-4.02-52.35h-27.96l-15.11,29.05h-4.99l5.69-29.05h-43.51c-5.57,0-9.96,1.46-13.07,4.32-2.9,2.67-4.94,6.56-6.01,11.59l-8.84,41.86c-.25,1.11-.41,2.09-.5,2.99-.07.85-.12,1.69-.12,2.52,0,5.3,2.31,8.31,4.26,9.89,2.49,2.06,6,3.05,10.68,3.05h59.23l4.95-9.99h14.05l.66,9.99h126.11l5.26-24.82h-28.74ZM93.87,61.27l15.6-30.84,2,30.84h-17.61Z"/>
  <path class="st0" d="M35.14,65.35l6.76-31.4c.31-1.46.74-2.43,1.28-2.9.55-.49,1.58-.72,3.09-.72h29.13l2.65-12.85h-36.26c-4.05,0-7.09.91-9.09,2.76-1.99,1.84-3.4,4.67-4.23,8.47l-8.85,41.97c-.19.83-.31,1.58-.38,2.24-.06.66-.09,1.31-.09,1.94,0,2.42.69,4.2,2.09,5.33,1.4,1.15,3.71,1.71,6.95,1.71h36.45l2.75-13.04h-29.32c-1.19,0-2.02-.15-2.48-.47-.44-.31-.66-.83-.66-1.52,0-.25.01-.5.04-.72.04-.22.09-.49.15-.81Z"/>
  <path class="st0" d="M122.23,17.48h-18.95l-33.5,64.43h14l4.95-9.99h23.22l.66,9.99h14.57l-4.95-64.43ZM93.87,61.27l15.6-30.84,2,30.84h-17.61Z"/>
  <path class="st0" d="M151.16,68.87l10.84-51.39h-14.47l-13.61,64.43h43.21l2.76-13.04h-28.73Z"/>
  <path class="st0" d="M202.45,68.87l10.86-51.39h-14.47l-13.61,64.43h43.21l2.76-13.04h-28.74Z"/>
  <path class="st0" d="M273.35,17.48l-2.58,12.27h8.77l-11.05,52.15h13.61l13.61-64.43h-22.36Z"/>
  <path class="st0" d="M351.58,19.29c-1.47-1.21-3.87-1.81-7.23-1.81h-28.08c-4.07,0-7.16.9-9.28,2.71-2.12,1.81-3.57,4.55-4.33,8.24l-1.9,8.94h13.04l1.05-5.04c.25-1.27.68-2.15,1.28-2.62.6-.47,1.55-.71,2.81-.71h17.99c1.84,0,2.76.6,2.76,1.8,0,.27-.01.5-.04.72s-.09.49-.15.81l-1.9,8.94c-.25,1.08-.63,1.84-1.15,2.28-.5.44-1.38.66-2.65.66h-14.08l-2.11,9.52h14.08c1.97,0,2.96.57,2.96,1.72,0,.44-.04.78-.1,1.05l-2.09,10.08c-.31,1.28-.78,2.17-1.38,2.67-.59.52-1.53.77-2.8.77h-18.18c-1.9,0-2.86-.66-2.86-2,0-.19.01-.4.04-.62.04-.22.09-.49.15-.81l1.15-5.61h-13.23l-2.09,9.99c-.32,1.59-.49,2.89-.49,3.9,0,2.42.72,4.2,2.15,5.33,1.43,1.15,3.76,1.71,7,1.71h29.6c4.11,0,7.16-.9,9.13-2.71,1.96-1.81,3.33-4.55,4.08-8.24l3.24-15.32c.06-.31.12-.63.15-.94.03-.32.04-.63.04-.96,0-1.71-.59-2.95-1.77-3.71-1.16-.75-2.67-1.24-4.51-1.43,2.28-.25,4.2-.99,5.75-2.22,1.56-1.24,2.62-3.2,3.2-5.86l2.56-12.08c.25-1.21.38-2.45.38-3.71,0-2.42-.72-4.21-2.18-5.42Z"/>
  <path class="st0" d="M414.01,19.19c-1.4-1.13-3.71-1.71-6.94-1.71h-30.28c-4.13,0-7.16.91-9.13,2.76-1.96,1.84-3.36,4.67-4.18,8.47l-8.85,41.97c-.38,1.65-.57,3.08-.57,4.29,0,2.34.72,4.1,2.15,5.23,1.43,1.15,3.76,1.71,7,1.71h30.26c4.13,0,7.16-.91,9.13-2.76,1.96-1.84,3.36-4.67,4.18-8.47l8.85-41.97c.12-.82.24-1.56.34-2.24.09-.66.13-1.31.13-1.94,0-2.42-.69-4.18-2.09-5.33ZM401.12,32.91c-.03.25-.09.53-.15.85l-6.85,32.07c-.25,1.13-.69,1.96-1.33,2.48-.63.5-1.72.75-3.24.75h-17.8c-1.84,0-2.76-.63-2.76-1.9,0-.25.06-.69.19-1.33l6.85-32.18c.31-1.4.75-2.36,1.33-2.9.57-.53,1.49-.81,2.75-.81h17.8c1.21,0,2.05.16,2.53.49.47.31.71.88.71,1.71,0,.25-.01.5-.04.77Z"/>
  <path class="st0" d="M475.87,19.19c-1.4-1.13-3.71-1.71-6.95-1.71h-30.26c-4.13,0-7.16.91-9.13,2.76-1.96,1.84-3.36,4.67-4.18,8.47l-8.85,41.97c-.38,1.65-.57,3.08-.57,4.29,0,2.34.72,4.1,2.15,5.23,1.43,1.15,3.76,1.71,7,1.71h30.26c4.13,0,7.16-.91,9.13-2.76,1.96-1.84,3.36-4.67,4.18-8.47l8.85-41.97c.12-.82.24-1.56.32-2.24.1-.66.15-1.31.15-1.94,0-2.42-.69-4.18-2.09-5.33ZM462.98,32.91c-.03.25-.09.53-.15.85l-6.85,32.07c-.25,1.13-.71,1.96-1.33,2.48-.65.5-1.72.75-3.24.75h-17.8c-1.84,0-2.76-.63-2.76-1.9,0-.25.06-.69.18-1.33l6.87-32.18c.31-1.4.75-2.36,1.33-2.9.57-.53,1.49-.81,2.75-.81h17.8c1.21,0,2.05.16,2.53.49.47.31.71.88.71,1.71,0,.25-.01.5-.04.77Z"/>
  <path class="st0" d="M558.56,17.48h-18.27l-34.93,40.82-2.37,11.14h31.97l-2.56,12.46h12.57l2.56-12.46h8.57l2.37-11.03h-8.56l8.65-40.93ZM537.35,58.41h-19.12l25.31-29.04-6.19,29.04Z"/>
  <path class="st0" d="M653.16,17.48l-27.79,44.83-8.37-44.83h-15.62l-13.61,64.43h11.99l8.28-39.12,7.72,39.12h11.31l23.9-39.12-8.28,39.12h11.89l13.61-64.43h-15.04Z"/>
  <path class="st0" d="M728.26,19.19c-1.4-1.13-3.71-1.71-6.94-1.71h-32.07c-4.13,0-7.17.91-9.15,2.76-1.96,1.84-3.36,4.67-4.18,8.47l-8.85,41.97c-.37,1.65-.56,3.08-.56,4.29,0,2.34.71,4.1,2.14,5.23,1.43,1.15,3.76,1.71,7,1.71h32.07c4.05,0,7.09-.91,9.09-2.76,1.99-1.84,3.4-4.67,4.23-8.47l8.85-41.97c.12-.75.24-1.49.34-2.18.09-.71.13-1.37.13-2,0-2.42-.69-4.18-2.09-5.33ZM714.51,32.91c-.04.25-.09.53-.15.85l-6.85,32.07c-.25,1.13-.71,1.96-1.34,2.48-.63.5-1.71.75-3.23.75h-17.99c-1.84,0-2.76-.66-2.76-1.99,0-.19.06-.6.18-1.24l6.87-32.07c.31-1.46.74-2.45,1.28-2.96.53-.5,1.44-.75,2.71-.75h17.99c2.21,0,3.33.72,3.33,2.18,0,.19-.01.41-.04.68Z"/>
  <path class="st0" d="M779.83,17.48l-24.46,47.01-3.61-47.01h-14.94l6.28,64.43h16.28l34.83-64.43h-14.38Z"/>
  <path class="st0" d="M804.67,69.06l2.86-13.51h23.7l2.18-10.28h-23.69l2.28-10.46h-14.94l-10,47.1h47.78l2.67-12.85h-32.84ZM800.68,17.48l-2.67,12.57h47.78l2.67-12.57h-47.78Z"/>
  <path class="st0" d="M907.08,19.25c-1.46-1.18-3.85-1.77-7.13-1.77h-40.93l-2.67,12.57h34.17c1.08,0,1.84.12,2.28.38.44.25.66.75.66,1.52,0,.19-.01.41-.04.66-.03.25-.07.55-.15.85l-2.28,10.48c-.31,1.33-.71,2.22-1.18,2.67-.49.44-1.41.66-2.81.66h-19.8l2.67-12.46h-14.47l-9.99,47.1h14.47l5.04-23.98h20.85c1.78,0,2.67.52,2.67,1.53,0,.19-.01.4-.04.62-.04.22-.09.49-.15.81l-4.38,21.02h14.47l4.66-22.36c.13-.38.19-.74.19-1.09v-1c0-2.03-.69-3.43-2.09-4.23-1.4-.8-3.11-1.25-5.14-1.38,2.22-.25,4.26-1.06,6.1-2.43,1.84-1.36,3.11-3.7,3.8-7l2.95-13.98c.13-.69.24-1.37.34-2,.09-.63.15-1.24.15-1.8,0-2.42-.74-4.21-2.2-5.38Z"/>
  <path class="st0" d="M931.15,41.28l1.81-8.47c.25-1.13.6-1.93,1.05-2.37.44-.44,1.18-.68,2.2-.68h34.17l2.56-12.27h-40.06c-4.2,0-7.28.91-9.24,2.76-1.97,1.84-3.36,4.67-4.18,8.47l-3.52,16.66c-.19,1.08-.29,1.99-.29,2.76,0,2.03.59,3.61,1.77,4.71,1.18,1.1,3.06,1.66,5.66,1.66h25.41c1.65,0,2.47.57,2.47,1.71,0,.44-.03.8-.1,1.05l-1.9,8.94c-.25,1.21-.65,2.03-1.18,2.48-.55.46-1.38.68-2.53.68h-34.36l-2.65,12.55h40.82c4.13,0,7.16-.91,9.13-2.76,1.96-1.84,3.36-4.67,4.18-8.47l3.71-17.61c.19-.96.28-1.84.28-2.67,0-2.03-.57-3.61-1.75-4.76-1.18-1.13-3.09-1.71-5.76-1.71h-25.8c-1.38,0-2.09-.47-2.09-1.43,0-.19.01-.38.06-.57.03-.19.07-.41.13-.66Z"/>
</svg>