<?xml version="1.0" encoding="UTF-8"?>
<svg id="Logo_White" xmlns="http://www.w3.org/2000/svg" version="1.1" viewBox="0 0 995.84 389.69">
  <!-- Generator: Adobe Illustrator 29.7.1, SVG Export Plug-In . SVG Version: 2.1.1 Build 8)  -->
  <defs>
    <style>
      .st0 {
        fill: #fff;
      }
    </style>
  </defs>
  <path d="M994.02,199.75l-.4-6.07-3.31-50.51c-1.21-18.25-9.87-33.65-24.41-43.36-10.12-6.75-22.31-10.17-36.24-10.17-1.93,0-3.91.07-5.82.2l-21.74,1.43-.06-90.49-450.27.28c-3.31-.37-6.72-.56-10.41-.56l-37.78.03c-17.84.02-32.52,5.09-43.64,15.09-4.18,3.77-7.67,8.01-10.45,12.72-20.16-11.85-42.87-18.6-66.79-19.73-17.88-.85-36.61-1.81-53.14-2.66h-.23s-17.49-.91-25.33-1.3c-2.02-.1-4.04-.2-6.08-.31l-5.99-.31c-8.72-.45-17.73-.92-26.85-1.29h-.17c-.65-.03-1.3-.04-1.93-.04-21.02,0-38.77,12.49-45.98,30.76-17.49,1.8-32.17,12.47-39.08,28.76-.15.33-.29.66-.43.99-23.52.71-42.66,16.39-47.64,38.11-10.47,4.82-18.83,13.29-23.74,24.35-6.69,14.81-5.78,31.81,2.41,45.47,8.02,13.38,21.52,21.83,37.24,23.37-1.7,4.41-2.76,9.12-3.11,14-.96,13.45,3.25,26.28,11.87,36.14,6.77,7.73,15.74,13.04,25.81,15.39.86,2.47,1.9,4.88,3.13,7.19,8.39,15.83,23.65,25.06,42.92,26l42.69,2.15c37.23,1.9,68.44,3.46,99.64,4.92,2.21.12,4.53.17,7.1.17h.01c6.49,0,12.93-.44,19.29-1.29-1.82,3.29-3.16,6.97-4.01,11.03l-2.37,11.25c-.48,2.36-.72,4.57-.72,6.76v.02c-1.27,2.46-2.22,5.13-2.83,7.99l-3.41,16.17c-.61,3.02-.91,5.68-.91,8.13,0,8.94,3.56,16.77,10.02,22.04,5.35,4.38,12.28,6.6,20.6,6.6h15.78c3.11,0,6.14-.37,9.04-1.1,3.28.74,6.9,1.1,10.98,1.1h82.47c2.3,0,4.51-.16,6.61-.48l-.1.48h58.61l.68-3.23c4.4,2.15,9.54,3.23,15.36,3.23h182.37c.33,0,.67,0,1.01,0h119.76l19.14-90.04v-.03s6.31-29.65,6.31-29.65l47.67-3.13c1.65.1,3.33.16,5.02.16,1.82,0,3.76-.06,5.82-.19l37.23-2.45c17.72-1.16,32.04-7.1,42.58-17.65,11.79-11.81,17.39-27.86,16.18-46.45Z"/>
  <path class="st0" d="M694.3,379.88c-.83,0-1.63-.03-2.4-.08v.08s-39.35,0-39.35,0l-.66-9.86h-3.64l-4.89,9.86h-95.42l.09-.43c-1.72.29-3.54.43-5.46.43h-31.66c-6.15,0-10.94-1.44-14.64-4.41-2.96-2.36-5.03-5.55-6.04-9.27l-2.89,13.68h-39.61l1.81-8.56c-.71.9-1.47,1.73-2.29,2.49-4.3,4.02-10.19,6.06-17.49,6.06h-55.59l7.88-37.19h4.21c-1.09-2.25-1.87-5.08-1.87-8.55,0-1.45.15-3.04.47-4.86l3.56-16.87c1.37-6.3,3.99-11.28,7.8-14.84,4.29-4.03,10.21-6.07,17.58-6.07h107.72l-.02.11c.94-.08,1.89-.11,2.88-.11h31.66c3.96,0,7.35.6,10.24,1.82l.39-1.82h50.43c6.22,0,11.07,1.46,14.81,4.48,3.8,3.05,6.11,7.45,6.67,12.55l8.85-17.03h37.71l.88,11.45c1.19-2.05,2.61-3.85,4.25-5.38,4.29-4.03,10.18-6.07,17.49-6.07h112.24l-7.88,37.2h-9.03l-2.92,13.72h8.95l-7.77,37.48h-107.03ZM457.81,328.78c.16.39.31.8.45,1.22l.26-1.22h-.71Z"/>
  <path class="st0" d="M347.28,379.88c-4.37,0-8-.48-11.11-1.45-2.78.96-5.77,1.45-8.9,1.45h-15.78c-6.2,0-11.01-1.47-14.71-4.49-4.26-3.48-6.61-8.76-6.61-14.85,0-1.83.24-3.89.72-6.29l3.4-16.1c.61-2.85,1.66-5.39,3.16-7.6-.08-.76-.13-1.54-.13-2.32,0-1.56.17-3.16.53-4.9l2.36-11.2c1.33-6.36,4.15-11.41,8.38-15.01,4.38-3.73,10.13-5.63,17.09-5.63h45.45l-4.18,19.73h1.82l-1.4,6.67h12.19l-7.41,34.37h-.55l-5.78,27.62h-18.52Z"/>
  <path class="st0" d="M977.82,202.36l-1.58-23.64h0s-2.26-34.47-2.26-34.47c-1.11-16.75-9.94-26.01-17.16-30.83-7.39-4.92-16.53-7.42-27.16-7.42-1.55,0-3.16.06-4.75.17l-37.22,2.44c-.65.04-1.3.09-1.94.15l-.06-91.61-434.89.27c-2.94-.37-6.07-.56-9.43-.56l-37.78.03c-13.69.01-24.69,3.68-32.71,10.89-7.37,6.64-11.68,15.52-12.84,26.47-21.41-17.69-47.88-27.96-76.12-29.3-17.99-.85-36.82-1.82-53.43-2.68,0,0-17.48-.89-25.28-1.28-2.09-.1-4.18-.21-6.29-.32l-5.84-.3c-8.7-.45-17.71-.91-26.68-1.28-.48-.01-.96-.03-1.43-.03-17.9,0-31.77,12.75-32.99,30.3-.01.16-.02.33-.03.49-1.95-.09-3.92-.18-5.91-.27-.58-.04-1.16-.04-1.74-.04-13.16,0-24.41,7.34-29.39,19.17-1.6,3.6-2.57,7.45-2.88,11.33-2.95-.15-5.91-.31-8.89-.46-.68-.03-1.35-.04-2-.04-18.67,0-33.03,12.95-34.16,30.81-.07,1.11-.08,2.21-.04,3.3-10.68,1.78-19.41,8.52-23.95,18.74-4.48,9.92-3.91,21.26,1.54,30.33,5.51,9.19,14.98,14.88,25.99,15.59,9.33.61,18.76,1.12,27.45,1.55.04,1.21.14,2.4.31,3.58-9.85,5.13-16.54,14.95-17.33,26.21-.65,9.06,2.14,17.65,7.87,24.2,5.77,6.59,14.03,10.54,23.23,11.12,1.29.08,2.59.16,3.88.23.23,4.92,1.57,9.83,3.97,14.34,5.66,10.68,15.8,16.67,29.29,17.33l42.7,2.15c37.16,1.89,68.34,3.45,99.66,4.92,1.93.1,3.97.15,6.24.15h.01c50.52,0,95.17-28.94,116.47-73.01l4.65,71.01,155.17-10.18c1.6.13,3.25.19,4.94.19s3.26-.06,4.92-.17l37.68-2.47c10.43-.69,18.9-3.06,25.62-7.2l1.35,4.75,260.61-17.1c1.62.13,3.28.2,4.98.2,1.48,0,3.07-.05,4.75-.16l37.24-2.45c13.64-.89,24.42-5.23,32.07-12.88,8.19-8.21,12.05-19.09,11.5-32.36l.06.08Z"/>
  <path d="M970.16,201.34l-.68-10.22s0-.06,0-.09l-1.27-18.99h.03s-1.79-27.28-1.79-27.28c-.05-.69-.12-1.35-.19-2v-.19s-.02.01-.02.01c-1.48-12.3-8.12-19.21-13.6-22.87-6.12-4.08-13.84-6.15-22.98-6.15-1.38,0-2.81.05-4.25.15l-37.23,2.44c-3.54.23-6.86.73-9.97,1.48l-.06-92.92-422.33.26v1.07c-4.25-1.09-9.03-1.62-14.44-1.62l-37.77.03c-11.78.01-21.08,3.02-27.67,8.95-7.08,6.38-10.67,15.51-10.67,27.15v10.93c-21.62-23.42-51.5-37.46-83.7-38.98-17.79-.84-35.88-1.77-53.46-2.68,0,0-17.48-.89-25.25-1.28-3.41-.16-6.82-.35-10.29-.53-9.29-.48-18.9-.98-28.39-1.37-.4-.01-.81-.03-1.2-.03-13.82,0-24.52,9.79-25.45,23.28-.19,2.72.03,5.39.63,7.91-4.67-.23-9.49-.45-14.56-.68-.43-.03-.86-.03-1.28-.03-10.1,0-18.7,5.6-22.46,14.62-2.35,5.25-2.94,10.98-1.81,16.31-5.74-.3-11.46-.6-17.21-.89-.57-.03-1.12-.04-1.66-.04-14.57,0-25.76,9.98-26.62,23.72-.21,3.52.28,6.92,1.43,10.05-.64-.04-1.3-.06-1.95-.1-.43-.01-.87-.03-1.3-.03-10.19,0-18.74,5.54-22.84,14.77-3.46,7.66-3.04,16.38,1.13,23.34,4.22,7.03,11.51,11.39,20.01,11.94,11.76.77,23.63,1.37,35.21,1.94-.44,1.84-.68,3.76-.72,5.7-.04,3.36.55,6.62,1.76,9.63-10.36,2.65-18.02,11.3-18.79,22.16-.5,7.03,1.64,13.68,6.01,18.68,4.43,5.06,10.83,8.1,18.04,8.56,3.88.25,7.75.44,11.56.62-1.4,5.89-.58,12.23,2.47,17.96,4.4,8.3,12.14,12.8,23,13.32,14.23.72,28.47,1.43,42.7,2.15,32.61,1.66,66.33,3.36,99.66,4.92,1.94.1,3.91.14,5.85.14h.01c56.6,0,105.36-38.56,118.6-93.8,1.17-4.91,2.04-9.88,2.6-14.86l6.96,106.18,143.98-9.45-.06-.87c2.86.54,5.91.81,9.15.81,1.42,0,2.92-.05,4.43-.15l37.67-2.47c13.15-.87,22.52-4.63,28.66-11.53.5-.57.98-1.15,1.45-1.76l2.96,10.44,250.45-16.43-.06-.97c3.01.59,6.22.88,9.6.88,1.38,0,2.82-.05,4.25-.14l37.24-2.45c11.75-.77,20.91-4.37,27.22-10.68,6.9-6.91,10-16.32,9.25-27.97Z"/>
  <path d="M775.55,323.52l-.12.57h23.34l-5,23.48h8.99l-5.63,27.15h-102.83c-3.17,0-5.84-.44-8.08-1.34l.1,1.34h-28.94l-.66-9.86h-11.67l-4.89,9.86h-47.85l4.93-23.67h-8.86l-4.99,23.67h-29.07l.74-3.5c-3.2,2.32-7.39,3.5-12.49,3.5h-31.66c-4.93,0-8.67-1.07-11.41-3.27-2.21-1.76-4.83-5.07-4.83-10.81,0-1.74.24-3.63.73-5.78l6.59-31.23h-8.04l-10.8,51.1h-29.06l10.79-51.1h-15.39l.07-.38h-5.69c2.52.57,4.62,1.66,6.27,3.27,1.8,1.75,3.94,4.88,3.94,9.89,0,1.28-.14,2.64-.42,4.05l-3.68,17.45c-1.14,5.25-3.24,9.33-6.27,12.16-3.32,3.1-8.02,4.67-13.97,4.67h-49.22l5.69-26.86h36.93l.04-.2h-19.08c-4.47,0-8.03-1.22-10.57-3.63-1.82-1.71-4-4.83-4-9.9,0-1.19.13-2.49.39-3.99l.05-.24,3.47-16.44c1.14-5.24,3.24-9.31,6.27-12.14,3.32-3.11,8.05-4.68,14.05-4.68h101.35l-.38,1.81c2.71-1.2,5.91-1.81,9.61-1.81h31.66c4.96,0,8.7,1.08,11.43,3.33.71.59,1.48,1.35,2.18,2.31l1.2-5.64h46.24c5,0,8.79,1.09,11.58,3.34,2.22,1.79,4.87,5.13,4.87,10.94,0,.92-.08,1.88-.23,2.86-.1.69-.23,1.43-.36,2.19l-2.95,14.01c-.69,3.26-1.86,6-3.48,8.18.41.97.68,2.01.85,3.12l23.2-44.63h29.79l2.86,37.28,4.31-20.45c1.14-5.24,3.24-9.32,6.27-12.15,3.32-3.11,8.02-4.68,13.97-4.68h105.87l-5.69,26.87h-32.36Z"/>
  <path d="M373.15,323.06h-12.16l1.4-6.67h-1.83l4.18-19.73h-39.08c-5.69,0-10.32,1.48-13.75,4.4-3.35,2.84-5.59,6.94-6.67,12.14l-2.36,11.17c-.29,1.42-.42,2.69-.42,3.86,0,1.37.17,2.59.44,3.68-1.5,1.66-2.88,4.02-3.58,7.31l-3.39,16.05c-.41,2.05-.62,3.77-.62,5.27,0,5.78,2.57,9.1,4.72,10.86,2.74,2.24,6.48,3.33,11.43,3.33h15.78c2.84,0,5.52-.49,7.94-1.44.31-.11.61-.25.9-.38.51.22,1.02.41,1.56.59,2.61.83,5.75,1.23,9.62,1.23h14.33l6.17-27.62h0l5.37-24.04Z"/>
  <g>
    <path class="st0" d="M280.79,48.83c-26.26-1.25-52.51-2.64-78.76-3.96-12.84-.65-25.68-1.36-38.53-1.89-5.47-.23-9.32,3.16-9.66,8.02-.36,5.17,3.03,9.05,8.58,9.58,3.37.32,6.78.36,10.17.53,15.9.79,31.8,1.58,48.69,2.43-1.43,1.03-1.87,1.37-2.33,1.68-16.01,10.35-28.65,23.79-37.17,40.92-1.15,2.32-2.67,2.37-4.78,2.26-21.18-1.11-42.36-2.14-63.54-3.2-11.14-.56-22.28-1.17-33.42-1.72-6.49-.32-10.82,2.96-11.16,8.36-.33,5.23,3.74,8.92,10.3,9.35.57.04,1.13.05,1.7.08,29.5,1.48,58.99,3.04,88.5,4.32,4.04.18,4.17,1.69,3.39,4.76-3.25,12.78-3.62,25.73-1.84,38.72.45,3.32-.08,4.09-3.52,3.89-19.05-1.12-38.1-2.03-57.16-2.9-6.19-.28-10.28,3.29-10.36,8.62-.08,5.14,3.69,8.64,9.7,8.96,21.03,1.1,42.05,2.26,63.09,3.19,2.89.13,4.11,1.07,5.17,3.67,6.5,16.03,16.41,29.62,29.6,40.85,1.37,1.16,3.36,1.86,4.06,4.13-18.65-.93-36.99-1.84-55.33-2.77-9.46-.47-18.91-1.07-28.38-1.42-7.82-.28-12.27,6.46-8.76,13.07,1.98,3.74,5.57,4.46,9.37,4.65,47.44,2.37,94.87,4.85,142.32,7.07,51.09,2.4,95.88-31.45,107.79-81.14,15.43-64.38-31.61-126.97-97.72-130.11M356.41,190.45c-19.85,44.55-71.99,64.43-116.7,44.49-44.33-19.77-64.65-71.93-45-115.84,20.73-46.34,73.89-64.88,117.95-44.75,43.33,19.79,63.32,72.16,43.74,116.1"/>
    <path class="st0" d="M311.35,116.47c-3.21-3.11-6.46-5.8-9.78-8.09v20.62c.01,1.76-.12,3.46-.38,5.1,9.93,10.19,13.29,25.77,7.24,39.53-5.6,12.75-18.3,20.99-32.35,21h0c-5.15,0-10.18-1.07-14.94-3.2-18.25-8.13-26.29-28.74-18.3-46.91,1.56-3.56,3.69-6.76,6.23-9.55-.39-1.91-.6-3.9-.61-5.95l-.02-25.79c-5.09,1.88-10.32,4.33-15.67,7.36l-4.16-5.9c-6.53,6.19-11.94,13.77-15.83,22.48-7.26,16.23-7.71,34.47-1.25,51.35,6.59,17.23,19.46,30.83,36.24,38.32,8.99,4.01,18.46,6.04,28.16,6.03,18.11-.01,35.11-7.21,47.64-19.38l-5.59-4.12c20.11-32.62,18-58.96-6.64-82.9M301.31,203.48c-7.76,4.04-16.42,6.19-25.38,6.19-7.83,0-15.49-1.64-22.77-4.89-13.56-6.05-23.96-17.05-29.28-30.97-5.19-13.59-4.85-28.23.97-41.24.92-2.06,1.95-4.05,3.07-5.95l.97,1.38,6.37-3.61v4.66c0,.68.02,1.37.05,2.05-1.79,2.56-3.31,5.28-4.56,8.13-10.95,24.91.04,53.15,25.01,64.28,6.47,2.88,13.31,4.34,20.33,4.34,9.27,0,18.11-2.63,25.65-7.3l-1.39,2.25.94.69Z"/>
    <path class="st0" d="M143.74,216.31c.69-4.06-1.43-8.08-5.5-9.9-.89-.69-2.33-.69-3.74-.76-13.97-.71-27.94-1.45-41.91-2.07-5.51-.24-9.44,3.02-9.78,7.8-.39,5.52,2.97,9.39,8.78,9.76,7.76.49,15.53.76,23.3,1.15,6.63.34,13.26.85,19.9,1,4.54.1,8.28-3.04,8.95-6.97"/>
    <path class="st0" d="M103.05,148.4c.32-4.62-3.17-8.71-8.21-9.02-14.52-.87-29.05-1.61-43.57-2.28-3.85-.18-6.85,1.47-8.48,5.15-2.62,5.79.77,11.79,7.3,12.21,14.51.95,29.04,1.63,43.57,2.33,5.02.24,9.05-3.49,9.39-8.4"/>
    <path class="st0" d="M121.68,90.87c14.78,1.07,29.59,1.7,44.4,2.26,4.77.18,8.47-3.66,8.69-8.13.24-4.8-3.02-8.93-7.96-9.24-14.65-.92-29.3-1.66-43.96-2.31-3.62-.16-6.65,1.29-7.98,4.74-2.85,6,.26,12.2,6.8,12.67"/>
    <path class="st0" d="M288.8,74.65c-24.49-4.39-46.8,2.36-65.79,18.73,36.11-20.48,71.77-20.62,102.13,8.88,32.79,31.86,33.27,69.25,9.69,107.5,19.9-22.78,27.12-49,18.29-78.19-9.6-31.77-31.85-51.1-64.33-56.92"/>
    <path class="st0" d="M260.97,152.5c-3.54,8.05.08,17.22,8.24,20.86,8.24,3.68,17.6.27,21.09-7.68,3.59-8.18-.11-17.62-8.33-21.25-7.95-3.51-17.54.18-21,8.07"/>
    <path class="st0" d="M275.73,136.83c3.93,0,6.05-3.03,6.05-7.82l-.02-34.62c0-4.79-2.13-9.32-6.06-9.32h-.54c-3.93,0-6.91,4.54-6.91,9.33l.02,34.62c0,4.79,2.99,7.81,6.92,7.81h.54Z"/>
  </g>
  <g>
    <path class="st0" d="M459.32,129.69c3.34-3.29,5.01-9.05,5-17.3l-.03-51.91c0-7.02-1.76-12.06-5.27-15.12-3.51-3.06-9.39-4.59-17.63-4.58l-37.76.02c-7.65,0-13.23,1.59-16.74,4.74-3.51,3.16-5.26,8.16-5.25,14.99l.03,51.91c0,8.1,1.65,13.82,4.94,17.18,3.29,3.36,8.98,5.04,17.07,5.03l37.76-.02c8.58,0,14.54-1.65,17.88-4.94M427.61,106.96c0,2.38-.36,4.07-1.08,5.07-.72,1-1.92,1.51-3.59,1.51-1.6,0-2.76-.51-3.48-1.53-.72-1.02-1.09-2.7-1.09-5.04l-.02-38.6c0-2.34.36-4.04,1.08-5.1.72-1.06,1.88-1.59,3.48-1.59,1.6,0,2.78.54,3.54,1.61.76,1.08,1.14,2.77,1.14,5.07l.02,38.6Z"/>
    <polygon class="st0" points="505.19 90.37 521.03 133.91 555.18 133.89 555.12 41.26 522.15 41.28 522.17 79.49 507.89 41.29 472.19 41.31 472.24 133.94 505.22 133.92 505.19 90.37"/>
    <polygon class="st0" points="578.96 133.88 614.89 133.86 614.85 62.34 633.45 62.33 633.44 41.22 560.3 41.26 560.32 62.37 578.92 62.36 578.96 133.88"/>
    <rect class="st0" x="638.87" y="41.2" width="36.15" height="92.63"/>
    <polygon class="st0" points="715.62 82.83 729.13 133.79 749.46 133.77 762.74 82.8 762.77 133.77 795.08 133.75 795.02 41.12 749.12 41.15 739.23 79.58 729.18 41.16 683.46 41.19 683.51 133.81 715.65 133.8 715.62 82.83"/>
    <polygon class="st0" points="861.85 112.6 839.63 112.61 839.61 93.45 861.84 93.44 861.82 72.33 839.6 72.34 839.6 62.2 861.82 62.19 861.81 41.08 803.43 41.11 803.49 133.74 861.86 133.71 861.85 112.6"/>
  </g>
  <g>
    <polygon class="st0" points="478.7 159.96 471.33 198.96 458.81 161.26 413.17 164.26 419.24 256.68 451.31 254.58 447.97 203.73 464.76 253.7 485.05 252.37 494.99 200.64 498.33 251.5 530.57 249.38 524.5 156.95 478.7 159.96"/>
    <path class="st0" d="M616.07,170.15c-.46-7-2.54-11.92-6.24-14.75-3.7-2.83-9.67-3.97-17.89-3.43l-37.68,2.47c-7.63.5-13.1,2.44-16.39,5.82-3.3,3.38-4.72,8.48-4.27,15.3l3.4,51.8c.53,8.08,2.54,13.69,6.04,16.82,3.5,3.14,9.29,4.44,17.36,3.91l37.68-2.47c8.56-.56,14.4-2.59,17.52-6.09,3.12-3.5,4.41-9.36,3.87-17.59l-3.4-51.8ZM581.74,224.03c-.66,1.05-1.82,1.63-3.49,1.74-1.59.1-2.79-.33-3.57-1.3-.79-.97-1.26-2.63-1.41-4.96l-2.53-38.52c-.15-2.33.1-4.05.75-5.16.65-1.1,1.78-1.71,3.37-1.81,1.59-.1,2.8.36,3.63,1.38.83,1.02,1.32,2.69,1.47,4.98l2.53,38.52c.16,2.37-.1,4.08-.75,5.13"/>
    <polygon class="st0" points="666.53 206.63 656.17 148.31 618.49 150.79 644.34 241.92 693.08 238.72 706.81 144.99 669.12 147.46 666.53 206.63"/>
    <polygon class="st0" points="751.67 213.72 750.42 194.6 772.59 193.15 771.21 172.08 749.04 173.53 748.37 163.42 770.55 161.97 769.17 140.9 710.92 144.72 716.98 237.15 775.23 233.33 773.85 212.27 751.67 213.72"/>
    <path class="st0" d="M859.04,186.08c-2.59-3.81-6.6-6.17-12.02-7.08,5.25-1.68,8.91-4.22,11-7.62,2.08-3.39,2.92-8.2,2.51-14.43-.51-7.82-2.68-13.31-6.5-16.49-3.82-3.17-9.91-4.49-18.29-3.94l-58.47,3.83,6.06,92.43,36.07-2.37-2.5-38.13,4-.26c1.93-.13,3.31.28,4.15,1.21.84.93,1.35,2.62,1.5,5.07l2.07,31.51,36.63-2.4-1.56-23.79c-.52-7.89-2.07-13.74-4.67-17.56M823.53,170.16c-.73,1.02-2.04,1.59-3.94,1.71l-4,.26-.86-13.06,4-.26c1.93-.13,3.31.27,4.15,1.18.84.91,1.34,2.61,1.51,5.09.16,2.37-.13,4.07-.87,5.08"/>
    <path class="st0" d="M950.09,179.3c-1.67-2.77-4.41-4.84-8.22-6.19l-29.93-10.37c-2.97-1-4.84-1.89-5.62-2.67-.78-.79-1.21-1.85-1.3-3.18-.09-1.37.23-2.49.98-3.36.74-.87,1.76-1.34,3.06-1.43,1.52-.1,2.71.35,3.58,1.36.87,1,1.37,2.52,1.5,4.56l.08,1.17,36.63-2.4-.72-10.95c-.37-5.67-2.56-9.84-6.57-12.52-4.01-2.68-9.7-3.77-17.07-3.29l-37.24,2.44c-7.37.48-12.88,2.31-16.53,5.49-3.64,3.18-5.28,7.6-4.9,13.27l.65,9.89c.31,4.71,1.57,8.35,3.79,10.91,2.21,2.57,6.27,4.84,12.17,6.79l25.68,8.48c2.81.93,4.6,1.95,5.36,3.05.76,1.1,1.24,3.1,1.43,5.99.17,2.56-.07,4.41-.72,5.57-.65,1.16-1.77,1.79-3.36,1.9-1.56.1-2.72-.34-3.49-1.33-.77-.99-1.23-2.64-1.38-4.93l-.43-6.5-36.9,2.42,1.1,16.73c.37,5.71,2.57,9.91,6.6,12.6,4.03,2.7,9.73,3.8,17.1,3.32l37.24-2.44c7.71-.51,13.28-2.48,16.72-5.93,3.44-3.44,4.94-8.56,4.49-15.34l-.67-10.23c-.38-5.82-1.41-10.11-3.08-12.89"/>
  </g>
  <g>
    <path class="st0" d="M347.28,367.49c-3.07,0-5.54-.3-7.42-.89-1.88-.59-3.04-1.74-3.48-3.43-.94,1.63-2.21,2.76-3.8,3.38-1.6.63-3.37.94-5.31.94h-15.78c-3.19,0-5.48-.56-6.86-1.69-1.38-1.13-2.07-2.88-2.07-5.26,0-1,.16-2.28.47-3.85l3.38-15.97c.5-2.38,1.58-4.09,3.24-5.12,1.66-1.03,3.58-1.64,5.78-1.83-1.82-.19-3.23-.7-4.23-1.55-1-.85-1.5-2.18-1.5-3.99,0-.69.09-1.5.28-2.44l2.35-11.08c.75-3.63,2.18-6.34,4.27-8.13,2.1-1.78,5.12-2.68,9.07-2.68h30.16l-2.35,11.08h-24.99c-1.19,0-2.05.27-2.58.8-.53.53-.96,1.49-1.27,2.86l-1.88,8.74c-.06.25-.11.47-.14.66-.03.19-.05.38-.05.56,0,.69.2,1.14.61,1.36.41.22,1.08.33,2.02.33h15.59l1.41-6.67h11.27l-1.41,6.67h12.12l-2.07,9.58h-12.12l-2.54,12.02c-.19.69-.28,1.25-.28,1.69,0,.75.25,1.24.75,1.46.5.22,1.28.33,2.35.33h7.99l-2.54,12.12h-8.46ZM338.73,339.87h-15.59c-1.19,0-2.05.24-2.58.7-.53.47-.92,1.27-1.17,2.4l-1.88,8.74c-.13.31-.19.61-.19.89v.7c0,1.38.88,2.07,2.63,2.07h15.5l3.29-15.5Z"/>
    <path class="st0" d="M389.46,367.49l2.63-12.4h33.91c1.13,0,1.96-.22,2.49-.66.53-.44.92-1.25,1.17-2.44l1.88-8.83c.06-.25.09-.59.09-1.03,0-1.13-.81-1.69-2.44-1.69h-25.08c-2.57,0-4.43-.55-5.59-1.64-1.16-1.1-1.74-2.64-1.74-4.65,0-.75.09-1.66.28-2.72l3.48-16.44c.81-3.76,2.19-6.54,4.13-8.36,1.94-1.82,4.98-2.72,9.11-2.72h39.55l-2.54,12.12h-33.73c-1,0-1.72.22-2.16.66-.44.44-.78,1.22-1.03,2.35l-1.78,8.36c-.06.25-.11.47-.14.66-.03.19-.05.38-.05.56,0,.94.69,1.41,2.07,1.41h25.46c2.63,0,4.52.56,5.68,1.69,1.16,1.13,1.74,2.69,1.74,4.7,0,.82-.09,1.69-.28,2.63l-3.66,17.38c-.82,3.76-2.19,6.54-4.13,8.36-1.94,1.82-4.95,2.72-9.02,2.72h-40.3Z"/>
    <path class="st0" d="M477.29,367.49h-14.28l10.8-51.11h-15.41l2.63-12.49h45.19l-2.63,12.49h-15.5l-10.8,51.11Z"/>
    <path class="st0" d="M510.92,367.49c-3.19,0-5.5-.56-6.9-1.69-1.41-1.13-2.11-2.85-2.11-5.17,0-1.19.19-2.6.56-4.23l8.74-41.43c.81-3.76,2.19-6.54,4.13-8.36,1.94-1.82,4.95-2.72,9.02-2.72h31.66c3.19,0,5.48.56,6.86,1.69,1.38,1.13,2.07,2.88,2.07,5.26,0,.63-.05,1.28-.14,1.97-.09.69-.2,1.41-.33,2.16l-8.74,41.43c-.82,3.76-2.21,6.54-4.18,8.36-1.97,1.82-4.96,2.72-8.97,2.72h-31.66ZM549.16,319.95c.06-.31.11-.59.14-.85.03-.25.05-.47.05-.66,0-1.44-1.1-2.16-3.29-2.16h-17.76c-1.25,0-2.15.25-2.68.75-.53.5-.96,1.47-1.27,2.91l-6.76,31.66c-.13.63-.19,1.03-.19,1.22,0,1.32.91,1.97,2.72,1.97h17.76c1.5,0,2.57-.25,3.19-.75.63-.5,1.07-1.31,1.32-2.44l6.76-31.66Z"/>
    <path class="st0" d="M601.2,367.49l4.32-20.76c.06-.31.11-.58.14-.8.03-.22.05-.42.05-.61,0-1-.88-1.5-2.63-1.5h-20.57l-4.98,23.67h-14.28l9.86-46.5h14.28l-2.63,12.31h19.54c1.38,0,2.3-.22,2.77-.66.47-.44.86-1.32,1.18-2.63l2.25-10.33c.06-.31.11-.6.14-.85.03-.25.05-.47.05-.66,0-.75-.22-1.25-.66-1.5-.44-.25-1.19-.38-2.25-.38h-33.73l2.63-12.4h40.4c3.26,0,5.6.58,7.04,1.74,1.44,1.16,2.16,2.93,2.16,5.31,0,.56-.05,1.16-.14,1.78-.09.63-.2,1.28-.33,1.97l-2.91,13.81c-.69,3.26-1.94,5.56-3.76,6.9-1.82,1.35-3.82,2.15-6.01,2.4,2,.13,3.69.58,5.07,1.36,1.38.78,2.07,2.18,2.07,4.18v.99c0,.34-.06.71-.19,1.08l-4.6,22.08h-14.28Z"/>
    <path class="st0" d="M664.14,367.49l-.66-9.86h-22.92l-4.89,9.86h-13.81l33.07-63.6h18.69l4.89,63.6h-14.37ZM661.04,316.66l-15.41,30.44h17.38l-1.97-30.44Z"/>
    <path class="st0" d="M694.3,367.49c-3.19,0-5.5-.56-6.9-1.69-1.41-1.13-2.11-2.85-2.11-5.17,0-1.19.19-2.6.56-4.23l8.74-41.43c.81-3.76,2.19-6.54,4.13-8.36,1.94-1.82,4.95-2.72,9.02-2.72h39.27l-2.63,12.68h-33.07c-1.25,0-2.11.22-2.58.66-.47.44-.86,1.38-1.17,2.82l-6.86,32.41c-.13.63-.19,1.03-.19,1.22,0,.63.19,1.05.56,1.27.38.22,1.03.33,1.97.33h20.39l3.1-14.47h-12.59l2.16-10.24h25.93l-7.8,36.92h-39.93Z"/>
    <path class="st0" d="M744.09,367.49l9.86-46.5h14.75l-2.25,10.33h23.39l-2.16,10.15h-23.39l-2.82,13.34h32.41l-2.63,12.68h-47.16ZM754.89,316.29l2.63-12.4h47.16l-2.63,12.4h-47.16Z"/>
  </g>
</svg>