<?xml version="1.0" encoding="UTF-8"?>
<svg id="Layer_1" xmlns="http://www.w3.org/2000/svg" version="1.1" viewBox="0 0 1000 400">
  <!-- Generator: Adobe Illustrator 29.7.1, SVG Export Plug-In . SVG Version: 2.1.1 Build 8)  -->
  <defs>
    <style>
      .st0 {
        fill: #fff;
      }

      .st1 {
        fill: #f47322;
      }
    </style>
  </defs>
  <path d="M996.71,204.91l-.4-6.08-3.31-50.57c-1.21-18.28-9.89-33.69-24.44-43.42-10.13-6.75-22.34-10.18-36.28-10.18-1.93,0-3.91.07-5.82.2l-21.77,1.43-.06-90.6-450.82.28c-3.31-.37-6.73-.56-10.43-.56l-37.83.03c-17.86.02-32.56,5.1-43.7,15.11-4.19,3.77-7.68,8.02-10.46,12.74-20.18-11.86-42.93-18.62-66.87-19.75-17.9-.85-36.66-1.81-53.21-2.67h-.23s-17.51-.91-25.36-1.3c-2.02-.1-4.05-.2-6.09-.31l-6-.31c-8.73-.45-17.75-.92-26.88-1.29h-.17c-.65-.03-1.3-.04-1.93-.04-21.05,0-38.82,12.51-46.04,30.8-17.51,1.81-32.21,12.49-39.13,28.79-.15.33-.29.66-.43.99-23.55.72-42.71,16.41-47.7,38.16-10.48,4.83-18.85,13.31-23.77,24.38-6.7,14.83-5.79,31.85,2.42,45.52,8.03,13.4,21.55,21.86,37.28,23.4-1.7,4.42-2.76,9.13-3.11,14.02-.96,13.46,3.26,26.31,11.89,36.18,6.78,7.74,15.76,13.05,25.84,15.41.86,2.47,1.91,4.88,3.14,7.2,8.41,15.85,23.68,25.09,42.97,26.03l42.74,2.15c37.28,1.9,68.53,3.46,99.76,4.92,2.21.12,4.54.17,7.1.17h.01c6.49,0,12.94-.44,19.32-1.29-1.82,3.29-3.16,6.98-4.01,11.05l-2.38,11.27c-.48,2.36-.72,4.58-.72,6.77v.02c-1.27,2.46-2.22,5.13-2.83,8l-3.42,16.19c-.61,3.02-.91,5.68-.91,8.14,0,8.95,3.57,16.79,10.03,22.07,5.35,4.38,12.29,6.61,20.62,6.61h15.8c3.11,0,6.15-.37,9.05-1.1,3.29.74,6.91,1.1,10.99,1.1h82.57c2.3,0,4.51-.16,6.62-.48l-.1.48h58.69l.68-3.23c4.41,2.15,9.56,3.23,15.38,3.23h182.6c.33,0,.67,0,1.01,0h119.91l19.17-90.16v-.03s6.31-29.68,6.31-29.68l47.73-3.13c1.65.1,3.34.16,5.03.16,1.82,0,3.76-.06,5.83-.19l37.28-2.46c17.74-1.16,32.08-7.1,42.63-17.67,11.8-11.82,17.41-27.9,16.2-46.5Z"/>
  <path class="st0" d="M696.62,385.26c-.83,0-1.63-.03-2.4-.08v.08s-39.4,0-39.4,0l-.66-9.88h-3.64l-4.89,9.88h-95.54l.09-.43c-1.73.29-3.55.43-5.47.43h-31.7c-6.16,0-10.95-1.44-14.66-4.41-2.97-2.36-5.03-5.55-6.05-9.28l-2.9,13.69h-39.66l1.81-8.57c-.71.9-1.47,1.73-2.29,2.5-4.31,4.03-10.2,6.07-17.51,6.07h-55.66l7.89-37.23h4.22c-1.1-2.26-1.87-5.08-1.87-8.56,0-1.45.15-3.04.47-4.87l3.56-16.89c1.37-6.3,3.99-11.3,7.81-14.86,4.3-4.03,10.22-6.08,17.6-6.08h107.86l-.02.11c.94-.08,1.9-.11,2.88-.11h31.7c3.96,0,7.36.6,10.26,1.82l.39-1.82h50.49c6.23,0,11.08,1.47,14.83,4.48,3.8,3.06,6.12,7.46,6.67,12.57l8.86-17.05h37.76l.88,11.46c1.2-2.05,2.62-3.85,4.26-5.38,4.3-4.03,10.19-6.08,17.51-6.08h112.38l-7.89,37.24h-9.04l-2.92,13.73h8.96l-7.78,37.52h-107.16ZM459.84,334.1c.16.39.32.8.46,1.23l.26-1.23h-.71Z"/>
  <path class="st0" d="M349.18,385.26c-4.37,0-8.01-.48-11.13-1.45-2.78.96-5.78,1.45-8.92,1.45h-15.8c-6.21,0-11.03-1.47-14.72-4.5-4.27-3.49-6.62-8.77-6.62-14.87,0-1.83.24-3.89.72-6.3l3.4-16.12c.61-2.85,1.67-5.4,3.16-7.61-.08-.76-.13-1.54-.13-2.33,0-1.56.17-3.16.53-4.9l2.36-11.21c1.33-6.37,4.15-11.43,8.39-15.03,4.38-3.74,10.14-5.63,17.11-5.63h45.51l-4.19,19.75h1.82l-1.41,6.68h12.21l-7.42,34.41h-.55l-5.78,27.66h-18.55Z"/>
  <path class="st0" d="M980.5,207.53l-1.58-23.66h0s-2.26-34.51-2.26-34.51c-1.11-16.77-9.95-26.04-17.18-30.87-7.4-4.93-16.55-7.43-27.2-7.43-1.56,0-3.17.06-4.75.17l-37.27,2.44c-.65.04-1.3.09-1.94.15l-.06-91.72-435.43.27c-2.95-.37-6.08-.56-9.44-.56l-37.82.03c-13.7.01-24.72,3.68-32.75,10.9-7.38,6.65-11.69,15.54-12.86,26.51-21.44-17.71-47.94-28-76.21-29.33-18.01-.85-36.86-1.83-53.5-2.68,0,0-17.5-.89-25.31-1.29-2.09-.1-4.19-.21-6.3-.32l-5.85-.3c-8.72-.45-17.73-.92-26.71-1.28-.48-.01-.96-.03-1.43-.03-17.92,0-31.81,12.76-33.03,30.34-.01.16-.02.33-.03.49-1.95-.09-3.92-.18-5.92-.27-.58-.04-1.16-.04-1.74-.04-13.18,0-24.44,7.35-29.42,19.19-1.6,3.61-2.57,7.46-2.88,11.34-2.95-.15-5.92-.31-8.9-.46-.68-.03-1.35-.04-2-.04-18.69,0-33.07,12.97-34.2,30.85-.07,1.11-.08,2.22-.04,3.31-10.69,1.78-19.43,8.53-23.98,18.77-4.49,9.94-3.91,21.29,1.54,30.36,5.52,9.2,15,14.89,26.02,15.61,9.34.61,18.78,1.12,27.48,1.56.04,1.21.14,2.41.31,3.58-9.86,5.14-16.56,14.97-17.35,26.25-.65,9.07,2.15,17.67,7.87,24.23,5.78,6.6,14.04,10.55,23.26,11.13,1.29.08,2.59.16,3.89.23.23,4.93,1.57,9.84,3.97,14.36,5.67,10.69,15.82,16.69,29.33,17.35l42.75,2.15c37.21,1.89,68.43,3.46,99.78,4.92,1.93.1,3.97.15,6.25.15h.01c50.59,0,95.29-28.98,116.62-73.1l4.66,71.09,155.36-10.2c1.61.13,3.26.19,4.94.19s3.26-.06,4.93-.17l37.72-2.47c10.44-.69,18.93-3.06,25.65-7.21l1.35,4.76,260.93-17.12c1.62.13,3.29.2,4.98.2,1.49,0,3.07-.05,4.76-.16l37.29-2.46c13.65-.89,24.45-5.23,32.11-12.9,8.2-8.22,12.06-19.11,11.52-32.4l.06.08Z"/>
  <path d="M972.83,206.5l-.68-10.23s0-.06,0-.09l-1.27-19.02h.03s-1.79-27.31-1.79-27.31c-.05-.69-.12-1.35-.19-2v-.19s-.02.01-.02.01c-1.48-12.31-8.13-19.23-13.62-22.9-6.12-4.08-13.86-6.16-23-6.16-1.39,0-2.81.05-4.26.15l-37.28,2.44c-3.54.23-6.87.73-9.98,1.49l-.06-93.04-422.85.26v1.07c-4.26-1.1-9.05-1.63-14.46-1.63l-37.82.03c-11.79.01-21.1,3.02-27.7,8.96-7.09,6.39-10.68,15.53-10.68,27.19v10.95c-21.64-23.44-51.56-37.5-83.8-39.03-17.81-.84-35.93-1.78-53.53-2.68,0,0-17.5-.89-25.28-1.29-3.41-.16-6.83-.35-10.31-.53-9.3-.48-18.92-.98-28.42-1.37-.4-.01-.81-.03-1.2-.03-13.83,0-24.55,9.8-25.49,23.31-.19,2.72.03,5.39.63,7.92-4.67-.23-9.5-.45-14.58-.68-.43-.03-.86-.03-1.29-.03-10.12,0-18.72,5.61-22.49,14.64-2.36,5.25-2.95,11-1.81,16.33-5.74-.3-11.48-.6-17.23-.89-.57-.03-1.12-.04-1.66-.04-14.59,0-25.79,9.99-26.66,23.75-.21,3.53.28,6.93,1.44,10.07-.64-.04-1.3-.06-1.95-.1-.43-.01-.87-.03-1.3-.03-10.2,0-18.76,5.54-22.87,14.79-3.46,7.67-3.05,16.4,1.13,23.37,4.22,7.04,11.53,11.4,20.03,11.96,11.78.77,23.66,1.37,35.25,1.94-.44,1.84-.68,3.77-.72,5.71-.04,3.36.55,6.63,1.76,9.64-10.37,2.66-18.04,11.31-18.81,22.18-.5,7.04,1.64,13.69,6.02,18.71,4.43,5.06,10.85,8.11,18.07,8.57,3.88.25,7.76.44,11.58.62-1.4,5.9-.58,12.25,2.47,17.98,4.41,8.31,12.16,12.81,23.03,13.34,14.25.72,28.51,1.44,42.76,2.15,32.65,1.66,66.42,3.36,99.79,4.93,1.94.1,3.92.14,5.86.14h.01c56.67,0,105.49-38.61,118.75-93.92,1.17-4.91,2.04-9.89,2.61-14.88l6.97,106.31,144.16-9.46-.06-.87c2.86.54,5.92.81,9.16.81,1.42,0,2.92-.05,4.43-.15l37.72-2.47c13.16-.87,22.55-4.64,28.7-11.54.5-.57.98-1.15,1.45-1.76l2.96,10.46,250.76-16.45-.06-.97c3.01.59,6.22.88,9.61.88,1.39,0,2.82-.05,4.26-.14l37.29-2.46c11.77-.77,20.94-4.37,27.25-10.7,6.9-6.92,10.02-16.34,9.26-28.01Z"/>
  <path d="M777.97,328.84l-.12.57h23.37l-5.01,23.51h9l-5.64,27.18h-102.96c-3.18,0-5.84-.44-8.09-1.34l.1,1.34h-28.98l-.66-9.88h-11.69l-4.89,9.88h-47.9l4.93-23.7h-8.87l-5,23.7h-29.1l.74-3.51c-3.21,2.33-7.39,3.51-12.5,3.51h-31.7c-4.93,0-8.68-1.08-11.43-3.28-2.21-1.76-4.84-5.08-4.84-10.83,0-1.74.24-3.63.73-5.79l6.6-31.26h-8.05l-10.82,51.16h-29.09l10.81-51.16h-15.41l.07-.38h-5.7c2.52.57,4.62,1.67,6.28,3.28,1.8,1.75,3.94,4.88,3.94,9.9,0,1.28-.14,2.65-.42,4.05l-3.68,17.47c-1.14,5.25-3.25,9.34-6.28,12.17-3.32,3.1-8.03,4.67-13.98,4.67h-49.28l5.7-26.89h36.97l.04-.2h-19.1c-4.48,0-8.04-1.22-10.58-3.63-1.82-1.72-4-4.84-4-9.91,0-1.19.13-2.49.39-3.99l.05-.24,3.48-16.46c1.14-5.24,3.25-9.32,6.28-12.15,3.32-3.11,8.06-4.68,14.07-4.68h101.48l-.38,1.81c2.71-1.2,5.92-1.81,9.62-1.81h31.7c4.96,0,8.71,1.09,11.45,3.33.71.59,1.48,1.35,2.18,2.32l1.2-5.65h46.3c5.01,0,8.8,1.1,11.59,3.34,2.22,1.79,4.87,5.14,4.87,10.95,0,.92-.08,1.88-.23,2.86-.1.69-.23,1.43-.36,2.19l-2.96,14.02c-.69,3.27-1.86,6.01-3.49,8.19.41.97.68,2.02.85,3.12l23.23-44.69h29.83l2.86,37.32,4.31-20.48c1.14-5.24,3.25-9.33,6.28-12.16,3.32-3.11,8.03-4.68,13.98-4.68h106l-5.7,26.9h-32.4Z"/>
  <path d="M375.07,328.37h-12.17l1.41-6.68h-1.83l4.19-19.75h-39.12c-5.7,0-10.33,1.48-13.77,4.41-3.35,2.84-5.6,6.95-6.68,12.15l-2.36,11.18c-.29,1.42-.42,2.69-.42,3.87,0,1.38.17,2.6.44,3.68-1.5,1.67-2.89,4.02-3.59,7.32l-3.39,16.07c-.41,2.05-.62,3.77-.62,5.27,0,5.79,2.58,9.11,4.73,10.87,2.74,2.24,6.48,3.33,11.45,3.33h15.8c2.84,0,5.52-.49,7.95-1.44.31-.11.61-.25.9-.38.51.22,1.02.41,1.56.59,2.62.83,5.76,1.23,9.63,1.23h14.34l6.18-27.65h0l5.38-24.07Z"/>
  <g>
    <path class="st1" d="M282.6,53.81c-26.29-1.25-52.57-2.64-78.86-3.97-12.86-.65-25.71-1.36-38.58-1.89-5.48-.23-9.33,3.16-9.67,8.03-.36,5.17,3.03,9.06,8.59,9.59,3.38.32,6.79.36,10.18.53,15.92.79,31.84,1.59,48.75,2.43-1.43,1.03-1.87,1.37-2.34,1.68-16.03,10.36-28.69,23.81-37.21,40.97-1.15,2.32-2.68,2.37-4.79,2.26-21.21-1.11-42.41-2.14-63.62-3.2-11.16-.56-22.31-1.17-33.46-1.72-6.5-.32-10.83,2.96-11.17,8.37-.33,5.24,3.74,8.93,10.32,9.37.57.04,1.13.05,1.7.08,29.54,1.48,59.07,3.04,88.61,4.32,4.05.18,4.18,1.69,3.4,4.76-3.25,12.79-3.63,25.76-1.84,38.77.46,3.32-.08,4.1-3.53,3.89-19.07-1.12-38.15-2.03-57.23-2.9-6.19-.28-10.3,3.29-10.37,8.63-.08,5.15,3.69,8.65,9.71,8.97,21.05,1.11,42.1,2.27,63.16,3.2,2.9.13,4.11,1.07,5.17,3.68,6.51,16.05,16.43,29.66,29.64,40.9,1.37,1.16,3.36,1.86,4.07,4.13-18.67-.94-37.03-1.85-55.4-2.77-9.47-.47-18.94-1.07-28.41-1.42-7.83-.28-12.29,6.47-8.77,13.09,1.99,3.75,5.58,4.47,9.38,4.66,47.5,2.37,94.99,4.86,142.49,7.08,51.15,2.4,96-31.48,107.92-81.24,15.44-64.46-31.65-127.13-97.84-130.27M358.32,195.6c-19.87,44.61-72.07,64.51-116.84,44.54-44.38-19.8-64.73-72.02-45.05-115.98,20.76-46.4,73.98-64.96,118.1-44.8,43.38,19.82,63.4,72.25,43.8,116.24"/>
    <path class="st1" d="M313.2,121.53c-3.21-3.12-6.47-5.81-9.79-8.1v20.65c.01,1.76-.12,3.46-.38,5.11,9.95,10.2,13.31,25.8,7.25,39.58-5.6,12.76-18.32,21.02-32.39,21.02h0c-5.16,0-10.19-1.07-14.96-3.2-18.27-8.14-26.32-28.77-18.33-46.97,1.57-3.57,3.7-6.77,6.24-9.56-.39-1.91-.6-3.9-.61-5.96l-.02-25.82c-5.1,1.88-10.33,4.33-15.68,7.37l-4.17-5.91c-6.54,6.2-11.95,13.79-15.85,22.5-7.27,16.25-7.72,34.51-1.25,51.41,6.6,17.25,19.48,30.87,36.28,38.37,9,4.01,18.48,6.04,28.19,6.04,18.14-.01,35.15-7.21,47.7-19.41l-5.6-4.13c20.14-32.66,18.02-59.03-6.65-83.01M303.15,208.65c-7.77,4.05-16.44,6.19-25.41,6.2-7.84,0-15.51-1.64-22.8-4.89-13.58-6.05-23.99-17.07-29.32-31.01-5.2-13.6-4.86-28.27.97-41.29.92-2.06,1.95-4.05,3.07-5.96l.97,1.38,6.38-3.62v4.66c0,.68.02,1.37.05,2.05-1.79,2.57-3.32,5.29-4.57,8.14-10.96,24.95.04,53.22,25.04,64.36,6.47,2.89,13.32,4.35,20.35,4.35,9.28,0,18.13-2.63,25.69-7.31l-1.39,2.25.94.7Z"/>
    <path class="st1" d="M145.38,221.49c.69-4.07-1.43-8.09-5.5-9.92-.89-.69-2.33-.7-3.74-.76-13.99-.71-27.97-1.45-41.97-2.07-5.52-.25-9.45,3.02-9.79,7.81-.39,5.53,2.97,9.4,8.79,9.77,7.77.49,15.55.77,23.33,1.15,6.64.34,13.28.85,19.93,1,4.54.1,8.29-3.05,8.96-6.98"/>
    <path class="st1" d="M104.65,153.5c.32-4.63-3.17-8.72-8.22-9.03-14.54-.87-29.08-1.61-43.63-2.28-3.85-.18-6.85,1.48-8.49,5.15-2.62,5.8.77,11.8,7.31,12.23,14.53.95,29.08,1.63,43.62,2.34,5.03.24,9.06-3.49,9.4-8.41"/>
    <path class="st1" d="M123.3,95.9c14.8,1.07,29.63,1.7,44.46,2.26,4.78.18,8.48-3.67,8.7-8.14.24-4.81-3.03-8.94-7.97-9.25-14.66-.92-29.34-1.66-44.01-2.31-3.63-.16-6.66,1.29-7.99,4.75-2.85,6,.26,12.21,6.81,12.68"/>
    <path class="st1" d="M290.63,79.66c-24.52-4.39-46.85,2.36-65.87,18.76,36.15-20.51,71.85-20.65,102.26,8.89,32.83,31.9,33.32,69.34,9.71,107.63,19.92-22.81,27.15-49.06,18.31-78.29-9.61-31.81-31.88-51.16-64.41-56.99"/>
    <path class="st1" d="M262.76,157.6c-3.54,8.06.08,17.24,8.25,20.88,8.25,3.68,17.62.27,21.12-7.69,3.6-8.19-.11-17.64-8.34-21.27-7.96-3.51-17.56.18-21.03,8.08"/>
    <path class="st1" d="M277.54,141.92c3.93,0,6.06-3.04,6.05-7.83l-.02-34.66c0-4.79-2.13-9.33-6.07-9.33h-.54c-3.93,0-6.92,4.55-6.92,9.34l.02,34.66c0,4.79,2.99,7.82,6.93,7.82h.54Z"/>
  </g>
  <g>
    <path class="st1" d="M461.35,134.77c3.34-3.29,5.01-9.07,5.01-17.32l-.03-51.98c0-7.03-1.76-12.07-5.28-15.14-3.52-3.07-9.4-4.6-17.65-4.59l-37.81.02c-7.66,0-13.24,1.59-16.76,4.75-3.51,3.16-5.26,8.17-5.26,15.01l.03,51.98c0,8.11,1.65,13.84,4.95,17.2,3.29,3.36,8.99,5.04,17.1,5.04l37.81-.02c8.59,0,14.55-1.65,17.9-4.95M429.6,112c0,2.38-.36,4.07-1.08,5.08-.72,1-1.92,1.51-3.6,1.51-1.6,0-2.76-.51-3.49-1.53-.73-1.02-1.09-2.7-1.09-5.05l-.02-38.65c0-2.34.36-4.04,1.08-5.1.73-1.06,1.89-1.59,3.48-1.59,1.6,0,2.78.54,3.54,1.62.76,1.08,1.14,2.77,1.15,5.07l.02,38.65Z"/>
    <polygon class="st1" points="507.28 95.39 523.14 138.99 557.33 138.97 557.27 46.23 524.26 46.25 524.28 84.51 509.98 46.26 474.23 46.28 474.29 139.02 507.31 139 507.28 95.39"/>
    <polygon class="st1" points="581.14 138.96 617.12 138.94 617.07 67.33 635.7 67.32 635.68 46.18 562.46 46.23 562.47 67.36 581.1 67.35 581.14 138.96"/>
    <rect class="st1" x="641.12" y="46.17" width="36.19" height="92.74"/>
    <polygon class="st1" points="717.97 87.85 731.5 138.87 751.85 138.86 765.15 87.82 765.18 138.85 797.53 138.83 797.47 46.08 751.52 46.11 741.61 84.6 731.55 46.13 685.77 46.15 685.82 138.9 718 138.88 717.97 87.85"/>
    <polygon class="st1" points="864.38 117.65 842.13 117.66 842.12 98.48 864.37 98.47 864.35 77.33 842.1 77.34 842.1 67.19 864.35 67.18 864.34 46.04 805.89 46.08 805.95 138.82 864.39 138.79 864.38 117.65"/>
  </g>
  <g>
    <polygon class="st1" points="480.76 165.07 473.38 204.12 460.84 166.38 415.15 169.37 421.22 261.92 453.33 259.81 449.99 208.89 466.8 258.93 487.11 257.6 497.07 205.8 500.41 256.72 532.69 254.61 526.62 162.06 480.76 165.07"/>
    <path class="st1" d="M618.3,175.27c-.46-7.01-2.54-11.93-6.25-14.76-3.71-2.83-9.68-3.98-17.91-3.43l-37.73,2.48c-7.64.5-13.11,2.44-16.41,5.83-3.3,3.38-4.72,8.49-4.28,15.32l3.4,51.87c.53,8.09,2.55,13.7,6.05,16.85,3.51,3.14,9.3,4.45,17.39,3.92l37.73-2.48c8.57-.56,14.42-2.59,17.54-6.1,3.12-3.5,4.42-9.37,3.87-17.61l-3.4-51.87ZM583.92,229.22c-.66,1.05-1.82,1.63-3.49,1.74-1.6.1-2.79-.33-3.58-1.3-.79-.97-1.26-2.63-1.42-4.97l-2.53-38.56c-.15-2.34.1-4.06.75-5.16.65-1.11,1.78-1.71,3.37-1.81,1.6-.1,2.81.36,3.64,1.38.83,1.03,1.32,2.69,1.47,4.99l2.53,38.56c.16,2.37-.1,4.09-.75,5.14"/>
    <polygon class="st1" points="668.82 211.81 658.45 153.41 620.72 155.89 646.6 247.13 695.41 243.93 709.15 150.09 671.42 152.56 668.82 211.81"/>
    <polygon class="st1" points="754.07 218.9 752.81 199.76 775.01 198.3 773.63 177.21 751.43 178.66 750.76 168.54 772.97 167.08 771.58 145.99 713.27 149.82 719.33 242.36 777.65 238.53 776.27 217.44 754.07 218.9"/>
    <path class="st1" d="M861.57,191.22c-2.6-3.82-6.61-6.18-12.04-7.09,5.26-1.69,8.92-4.23,11.01-7.63,2.09-3.4,2.93-8.21,2.52-14.44-.51-7.83-2.68-13.33-6.5-16.51-3.82-3.18-9.93-4.49-18.31-3.94l-58.54,3.84,6.07,92.55,36.12-2.37-2.5-38.18,4.01-.26c1.93-.13,3.32.28,4.16,1.21.84.93,1.35,2.62,1.51,5.07l2.07,31.55,36.67-2.41-1.56-23.82c-.52-7.9-2.08-13.76-4.67-17.58M826.01,175.28c-.73,1.02-2.05,1.59-3.94,1.71l-4.01.26-.86-13.08,4.01-.26c1.93-.13,3.32.27,4.16,1.18.84.91,1.35,2.61,1.51,5.1.16,2.37-.13,4.07-.87,5.09"/>
    <path class="st1" d="M952.73,184.43c-1.67-2.78-4.42-4.84-8.23-6.19l-29.97-10.39c-2.97-1-4.85-1.89-5.62-2.68-.78-.79-1.21-1.85-1.3-3.18-.09-1.37.24-2.49.98-3.36.74-.87,1.77-1.35,3.06-1.43,1.52-.1,2.71.35,3.58,1.36.87,1,1.37,2.53,1.5,4.57l.08,1.17,36.67-2.41-.72-10.96c-.37-5.68-2.57-9.86-6.58-12.54-4.01-2.68-9.71-3.78-17.09-3.29l-37.29,2.45c-7.38.48-12.9,2.32-16.55,5.5-3.65,3.18-5.28,7.61-4.91,13.29l.65,9.91c.31,4.71,1.57,8.36,3.79,10.93,2.22,2.57,6.28,4.84,12.18,6.8l25.71,8.49c2.82.93,4.61,1.95,5.37,3.06.76,1.11,1.24,3.1,1.43,6,.17,2.56-.07,4.42-.73,5.58-.65,1.16-1.77,1.79-3.37,1.9-1.56.1-2.72-.34-3.5-1.34-.77-.99-1.23-2.64-1.39-4.94l-.43-6.51-36.95,2.43,1.1,16.75c.37,5.71,2.58,9.92,6.61,12.62,4.03,2.7,9.74,3.81,17.12,3.32l37.29-2.45c7.72-.51,13.3-2.48,16.74-5.93,3.44-3.45,4.94-8.57,4.5-15.36l-.67-10.24c-.38-5.82-1.41-10.13-3.08-12.9"/>
  </g>
  <g>
    <path class="st1" d="M349.17,372.86c-3.07,0-5.55-.3-7.43-.89-1.88-.59-3.04-1.74-3.48-3.43-.94,1.63-2.21,2.76-3.81,3.39-1.6.63-3.37.94-5.31.94h-15.8c-3.2,0-5.49-.56-6.87-1.69-1.38-1.13-2.07-2.88-2.07-5.27,0-1,.16-2.29.47-3.86l3.39-15.99c.5-2.38,1.58-4.09,3.25-5.13,1.66-1.03,3.59-1.65,5.78-1.83-1.82-.19-3.23-.7-4.23-1.55-1-.85-1.5-2.18-1.5-4,0-.69.09-1.5.28-2.45l2.35-11.1c.75-3.64,2.18-6.35,4.28-8.14,2.1-1.79,5.13-2.68,9.08-2.68h30.19l-2.35,11.1h-25.02c-1.19,0-2.05.27-2.59.8-.53.53-.96,1.49-1.27,2.87l-1.88,8.75c-.06.25-.11.47-.14.66-.03.19-.05.38-.05.56,0,.69.2,1.15.61,1.36.41.22,1.08.33,2.02.33h15.61l1.41-6.68h11.29l-1.41,6.68h12.13l-2.07,9.59h-12.13l-2.54,12.04c-.19.69-.28,1.26-.28,1.69,0,.75.25,1.24.75,1.46.5.22,1.28.33,2.35.33h8l-2.54,12.13h-8.47ZM340.61,345.2h-15.61c-1.19,0-2.05.24-2.59.7-.53.47-.93,1.27-1.18,2.4l-1.88,8.75c-.13.32-.19.61-.19.89v.7c0,1.38.88,2.07,2.63,2.07h15.52l3.29-15.52Z"/>
    <path class="st1" d="M391.4,372.86l2.63-12.42h33.96c1.13,0,1.96-.22,2.49-.66.53-.44.92-1.25,1.18-2.45l1.88-8.84c.06-.25.09-.59.09-1.03,0-1.13-.82-1.69-2.45-1.69h-25.11c-2.57,0-4.44-.55-5.6-1.65-1.16-1.1-1.74-2.65-1.74-4.66,0-.75.09-1.66.28-2.73l3.48-16.46c.81-3.76,2.19-6.55,4.14-8.37,1.94-1.82,4.99-2.73,9.12-2.73h39.6l-2.54,12.13h-33.77c-1,0-1.73.22-2.16.66-.44.44-.78,1.22-1.03,2.35l-1.79,8.37c-.06.25-.11.47-.14.66-.03.19-.05.38-.05.56,0,.94.69,1.41,2.07,1.41h25.49c2.63,0,4.53.56,5.69,1.69,1.16,1.13,1.74,2.7,1.74,4.7,0,.82-.09,1.69-.28,2.63l-3.67,17.4c-.82,3.76-2.2,6.55-4.14,8.37-1.94,1.82-4.95,2.73-9.03,2.73h-40.35Z"/>
    <path class="st1" d="M479.35,372.86h-14.3l10.82-51.17h-15.43l2.63-12.51h45.24l-2.63,12.51h-15.52l-10.82,51.17Z"/>
    <path class="st1" d="M513.02,372.86c-3.2,0-5.5-.56-6.91-1.69-1.41-1.13-2.12-2.85-2.12-5.17,0-1.19.19-2.6.56-4.23l8.75-41.48c.81-3.76,2.19-6.55,4.14-8.37,1.94-1.82,4.95-2.73,9.03-2.73h31.7c3.2,0,5.49.56,6.87,1.69,1.38,1.13,2.07,2.88,2.07,5.27,0,.63-.05,1.29-.14,1.98-.09.69-.21,1.41-.33,2.16l-8.75,41.48c-.82,3.76-2.21,6.55-4.19,8.37-1.98,1.82-4.97,2.73-8.98,2.73h-31.7ZM551.3,325.26c.06-.31.11-.59.14-.85.03-.25.05-.47.05-.66,0-1.44-1.1-2.16-3.29-2.16h-17.78c-1.25,0-2.15.25-2.68.75-.53.5-.96,1.47-1.27,2.92l-6.77,31.7c-.13.63-.19,1.03-.19,1.22,0,1.32.91,1.97,2.73,1.97h17.78c1.5,0,2.57-.25,3.2-.75.63-.5,1.07-1.32,1.32-2.45l6.77-31.7Z"/>
    <path class="st1" d="M603.41,372.86l4.33-20.79c.06-.31.11-.58.14-.8.03-.22.05-.42.05-.61,0-1-.88-1.5-2.63-1.5h-20.6l-4.99,23.7h-14.3l9.88-46.56h14.3l-2.63,12.32h19.56c1.38,0,2.3-.22,2.77-.66.47-.44.86-1.32,1.18-2.63l2.26-10.35c.06-.31.11-.6.14-.85.03-.25.05-.47.05-.66,0-.75-.22-1.25-.66-1.51-.44-.25-1.19-.38-2.26-.38h-33.77l2.63-12.42h40.45c3.26,0,5.61.58,7.05,1.74,1.44,1.16,2.16,2.93,2.16,5.31,0,.56-.05,1.16-.14,1.79-.09.63-.2,1.29-.33,1.98l-2.92,13.83c-.69,3.26-1.94,5.57-3.76,6.91-1.82,1.35-3.83,2.15-6.02,2.4,2.01.13,3.7.58,5.08,1.36,1.38.78,2.07,2.18,2.07,4.19v.99c0,.35-.06.71-.19,1.08l-4.61,22.1h-14.3Z"/>
    <path class="st1" d="M666.43,372.86l-.66-9.88h-22.95l-4.89,9.88h-13.83l33.11-63.68h18.72l4.89,63.68h-14.39ZM663.32,321.97l-15.43,30.48h17.4l-1.98-30.48Z"/>
    <path class="st1" d="M696.62,372.86c-3.2,0-5.5-.56-6.91-1.69-1.41-1.13-2.12-2.85-2.12-5.17,0-1.19.19-2.6.56-4.23l8.75-41.48c.81-3.76,2.19-6.55,4.14-8.37,1.94-1.82,4.95-2.73,9.03-2.73h39.32l-2.63,12.7h-33.11c-1.26,0-2.12.22-2.59.66-.47.44-.86,1.38-1.18,2.82l-6.87,32.45c-.13.63-.19,1.04-.19,1.22,0,.63.19,1.05.56,1.27.38.22,1.03.33,1.98.33h20.41l3.1-14.49h-12.6l2.16-10.25h25.96l-7.81,36.97h-39.97Z"/>
    <path class="st1" d="M746.47,372.86l9.88-46.56h14.77l-2.26,10.35h23.42l-2.16,10.16h-23.42l-2.82,13.36h32.45l-2.63,12.7h-47.22ZM757.29,321.59l2.63-12.42h47.22l-2.63,12.42h-47.22Z"/>
  </g>
</svg>